<svg xmlns="http://www.w3.org/2000/svg" viewBox="0 0 110 110"><defs><style>.cls-1{fill:#dc2828;}</style></defs><title>Ativo 1</title><g id="Camada_2" data-name="Camada 2"><g id="Camada_1-2" data-name="Camada 1"><path class="cls-1" d="M40,80H10A10,10,0,0,0,0,90H45A10,10,0,0,0,55,80,10,10,0,0,0,65,90h45a10,10,0,0,0-10-10H70A10,10,0,0,1,60,70h40a10,10,0,0,0,10-10H0A10,10,0,0,0,10,70H50A10,10,0,0,1,40,80Z"/><path class="cls-1" d="M110,50V30a10,10,0,0,0-10-10H20V40A10,10,0,0,0,30,50ZM30,30h70V40H30Z"/><path class="cls-1" d="M0,10V50A10,10,0,0,0,10,40V10h90A10,10,0,0,0,110,0H10A10,10,0,0,0,0,10Z"/><path class="cls-1" d="M10,110H110a10,10,0,0,0-10-10H0A10,10,0,0,0,10,110Z"/></g></g></svg>